
<svg contentScriptType="text/ecmascript" width="24"
     xmlns:xlink="http://www.w3.org/1999/xlink" zoomAndPan="magnify"
     contentStyleType="text/css" viewBox="0 0 24 24" height="24"
     preserveAspectRatio="xMidYMid meet" xmlns="http://www.w3.org/2000/svg"
     version="1.0">
    <g fill="#3e3832">
        <path fill="none"
              d="M16.625 21.505h-14.625c-.824-.003-1.5-.681-1.5-1.505v-18c0-.825.676-1.5 1.5-1.5h13c.825 0 1.5.675 1.5 1.5v13.521"
              stroke-miterlimit="10" stroke="#3e3832" stroke-linejoin="round"/>
        <path stroke-linecap="round" fill="none" stroke-linejoin="round"
              d="M14.938 17.5h-12.438v-15h12v11.438M23 23.5l-3-4v-4.559c0-1.693-1.581-3.305-3.5-4.941M17.5 16.5l-2.25-2.25c-.414-.414-1.086-.414-1.5 0s-.25 1.25 0 1.5l2.25 3.25v1l2 3.5"
              stroke="#3e3832" stroke-miterlimit="10"/>
        <path fill="none" d="M6.031 19.5h3.938" stroke-miterlimit="10"
              stroke="#3e3832" stroke-linejoin="round"/>
        <path d="M4.5 19c-.276 0-.5.225-.5.5s.224.5.5.5.5-.225.5-.5-.224-.5-.5-.5zM11.5 19c-.276 0-.5.225-.5.5s.224.5.5.5.5-.225.5-.5-.224-.5-.5-.5z"/>
        <path fill="none" d="M5 13.5h7M5 11.5h7M5 9.5h7M5 7.5h7M5 5.5h4"
              stroke-miterlimit="10" stroke="#3e3832" stroke-linejoin="round"/>
    </g>
</svg>