<?xml version="1.0" encoding="UTF-8"?>
<svg width="100px" height="100px" viewBox="0 0 100 100" version="1.1" xmlns="http://www.w3.org/2000/svg" xmlns:xlink="http://www.w3.org/1999/xlink">
    <!-- Generator: Sketch 52.1 (67048) - http://www.bohemiancoding.com/sketch -->
    <title>Arbeidsplassen</title>
    <desc>Created with Sketch.</desc>
    <defs>
        <circle id="path-1" cx="50" cy="50" r="50"></circle>
    </defs>
    <g id="Brukerhistorier" stroke="none" stroke-width="1" fill="none" fill-rule="evenodd">
        <g id="FO-1853" transform="translate(-15.000000, -376.000000)">
            <g id="Arbeidsplassen" transform="translate(15.000000, 376.000000)">
                <g id="Oval-2-Copy">
                    <mask id="mask-2" fill="white">
                        <use xlink:href="#path-1"></use>
                    </mask>
                    <use id="Oval" fill="#CCDEE6" fill-rule="nonzero" xlink:href="#path-1"></use>
                </g>
                <g id="Mia-Copy" transform="translate(23.000000, 17.000000)">
                    <g id="Group" fill="#FFFFFF" fill-rule="nonzero">
                        <path d="M13.850669,40.2797385 C12.7358556,40.0532381 11.1096599,39.5075781 10.1789442,40.1767838 C9.98461891,40.3106249 10.3016759,39.9296924 10.2403101,40.1561928 C9.56528544,42.8021289 7.30497574,41.7416954 6.49699173,44.1920175 C5.11625956,44.1405402 2.03773821,46.2614073 1.68999826,47.610114 C1.3422583,48.9588207 2.03773821,50.5031414 3.27528334,51.1311651 C2.71276282,51.4091429 2.08887644,51.5841659 1.46499005,51.6459387 C0.933152474,54.4874888 -0.723726127,56.1347642 0.360404316,58.8115867 C0.544501938,59.2748829 2.73321812,59.583747 1.68999826,60.7677262 C1.36271359,61.1383632 0.922924829,61.4678183 0.462680773,61.2824998 C-0.0487015118,61.5192956 0.452453127,63.516617 0.810420726,63.9490268 C5.3719507,69.5188768 8.44024441,66.0184166 11.713091,64.6800053 C14.9859377,63.341594 14.1779536,60.0161568 14.9859377,59.429315 L15.292767,61.3854545 C15.3541329,61.4678183 16.8269139,61.2824998 17.1337432,62.4150016 C17.256475,62.8782978 18.4224266,60.8706809 18.5656136,60.4588621 C19.0769959,59.0277916 18.5860689,59.3366557 19.2815488,57.987949 C20.7134192,55.2081718 19.7008823,54.0962609 20.9179722,51.6047568 C22.0123302,49.3603441 19.2099553,44.9950643 20.0997605,42.235878 C20.3247687,41.5460814 20.2634028,39.6208283 20.836151,39.178123 C21.2043462,38.9001453 22.1759726,37.5514386 22.5543955,37.2940518 C24.1908188,36.140959 26.031795,37.9117801 24.5999246,34.5142746 C23.4442006,31.7756792 25.6635998,29.2841752 26.4409008,27.8222183 C27.4329825,25.958738 27.504576,24.6718041 28.1796006,22.6744827 C28.5375682,21.6140491 28.6705276,20.5124337 29.1000887,19.4828866 C29.5296498,18.4533394 30.4092274,17.4649742 31.5138131,17.3620195 C31.0331137,16.5795637 31.9536019,15.6426758 32.8331794,15.3955845 C33.7127569,15.1484932 34.7662044,15.1073113 35.3082696,14.3763328 C35.6048714,13.9748095 35.6764649,13.4497404 35.8605625,12.9761488 C36.4639936,11.4215326 38.4992951,10.6390768 39.9823037,11.3906462 C40.841426,11.8333514 40.6573283,13.1923536 41.4653123,13.7174227 C42.8562722,14.6234241 43.8074432,14.4175147 45.0449883,13.3056038 L47.0905175,13.7174227 C47.5507615,12.4510797 47.8985015,11.0200092 47.6018998,9.7021889 C47.3564363,8.62116442 47.1825663,7.24157127 48.287152,7.13861656 C49.9440306,6.98418449 50.9770228,9.7021889 52.3066168,9.7021889 C53.022552,7.84900408 54.147593,7.02536638 53.9839507,6.68561583 C53.656666,6.02670567 52.4600315,7.06654826 51.2838522,6.4076381 C51.0077058,6.25320604 50.8236082,4.80154459 51.1304375,4.69858988 C52.4600315,4.25588462 54.0657718,3.52490616 52.705495,2.39240432 C51.9077386,1.73349416 51.1099822,1.03340212 50.07699,1.074584 C49.5246972,1.09517495 48.9008108,1.32167531 48.7371684,1.84674435 C48.1951032,1.92910812 47.970095,0.920151936 48.5019326,0.765719868 C48.2973797,0.189173478 47.5916721,-0.150577072 47.018924,0.0656278236 C46.4461758,0.28183272 46.1393464,1.01281118 46.3745823,1.5790621 C45.6688747,1.22901607 44.9222566,0.878970051 44.1347279,0.878970051 C43.3471992,0.878970051 42.4983046,1.3628572 42.3448899,2.14531301 C41.9971499,2.00117642 41.618727,1.85703982 41.2607594,1.94969906 C40.8925642,2.0423583 40.6061901,2.48506356 40.8005154,2.80422317 C39.8186614,2.1864949 38.2947422,2.9380643 38.1924657,4.10145255 C38.5095227,4.55445328 39.2663685,4.37943027 39.6345638,4.55445328 C39.9209378,5.07952232 39.0311327,5.32661362 38.4890675,5.56340946 C36.9856035,6.21202415 35.3696355,6.88122978 33.7536675,6.61354753 C33.5900252,6.58266112 33.4059275,6.5517747 33.2525129,6.60325206 C32.87409,6.71650224 32.7922688,7.20038939 32.6593094,7.58132183 C32.2911142,8.63145989 31.2069837,9.19771081 30.2864956,9.81543908 C29.3660075,10.4331674 29.7239751,10.7420315 28.7012105,11.8745333 C27.8625436,11.3082824 26.6556814,12.1319201 25.8272421,12.7084665 C24.9885751,13.2850129 26.1852097,13.2850129 25.6329168,14.139537 C26.5124943,14.3557419 25.6635998,15.3441071 26.5738602,15.3338117 C24.6510628,15.9103581 24.4669652,16.9090188 23.0760054,18.3606802 C24.4362823,18.4739304 25.7351933,15.6838577 27.473893,16.4045407 C28.7421211,16.9296097 28.7012105,15.7868124 27.9852753,16.7134048 C25.8988356,17.1252237 24.8147052,19.5240685 24.9681198,21.655231 C23.4953389,23.3128019 22.3702978,25.2689414 21.6645903,27.379513 C21.3782162,28.2443326 21.1429804,29.170925 20.5600046,29.871017 C20.2122646,30.3034268 19.7417929,30.6328819 19.4554188,31.1064736 C19.1690447,31.5800653 19.1588171,32.3007483 19.6292888,32.5993169 C18.9235812,32.6302033 18.1871908,32.6713852 17.5633044,33.0111358 C16.939418,33.3508863 16.4689463,34.0921603 16.6632715,34.7716614 C16.7450927,35.0496391 16.3666698,34.5554565 16.3155316,34.8437297 C16.2643934,35.1422983 16.5098569,35.3070259 16.2132551,35.3585032 C15.0882141,35.5644126 14.5768318,35.9762315 13.4517908,39.0648729 C14.0961325,39.373737 14.3620513,39.5281691 14.9859377,39.1678276 C15.609824,38.8074861 16.2132551,37.4175975 16.5200845,38.3441899 C14.8222953,38.9825091 19.2917765,40.5680117 14.0654495,39.8885106 L13.8711243,40.3003294 C13.8608966,40.2797385 13.8608966,40.2797385 13.850669,40.2797385 Z" id="Shape"></path>
                    </g>
                    <g id="Group-8" transform="translate(33.000000, 37.500000) scale(-1, 1) translate(-33.000000, -37.500000) translate(20.000000, 23.000000)">
                        <path d="M0.555446666,28.450654 C-0.152727799,27.6822044 -0.188185769,26.3942236 0.474681289,25.5743918 L7.55642593,16.8074443 C8.21929299,15.9876125 9.32932445,15.9453649 10.0374989,16.7138145 C10.7446884,17.482264 10.7811314,18.769103 10.1182643,19.5889348 L3.03651965,28.3558823 C2.37365259,29.1757141 1.26362113,29.2191035 0.555446666,28.450654" id="Fill-33" fill="#C52D35"></path>
                        <path d="M22.4334174,3.53302667 C19.4305238,0.447261779 14.6991849,0.618134753 11.887662,3.91274439 C9.07512129,7.20623721 9.22984666,12.3972018 12.2327403,15.4829667 C15.2366519,18.5687316 19.9679908,18.3989754 22.7805316,15.1043658 C25.5920544,11.8097562 25.4363111,6.61879156 22.4334174,3.53302667 M11.4071991,16.4512469 C7.91671689,12.8651481 7.73654327,6.83322039 11.0040987,3.00477231 C14.2726722,-0.822558952 19.7705124,-1.02023553 23.2599766,2.56474648 C26.7494409,6.15084531 26.9306324,12.182773 23.662059,16.0112211 C20.3945035,19.8396691 14.8966633,20.0362289 11.4071991,16.4512469" id="Fill-34" fill="#303339"></path>
                        <path d="M9.22834452,18.4854012 C8.68208412,17.9371122 8.43461333,17.2688849 8.94666118,16.6814324 L10.6561483,14.7232573 C11.1681962,14.1358048 12.0246504,14.1064322 12.5720512,14.6547212 C13.1171712,15.2030102 13.1456816,16.1233525 12.6336338,16.7095812 L10.9241466,18.6689801 C10.4120988,19.2564327 9.77460492,19.0336903 9.22834452,18.4854012" id="Fill-35" fill="#303339"></path>
                        <path d="M8.11464282,18.0655738 L1.59884134,26.002154 C1.38283201,26.2650272 1.39531255,26.6757666 1.62476246,26.9222102 C1.85517242,27.1686539 2.21518797,27.1544149 2.4311973,26.892637 L8.66666667,19.2956013 C8.28841033,18.8760995 8.1280834,18.4346916 8.11464282,18.0655738" id="Fill-36" fill="#DA4D57"></path>
                    </g>
                </g>
            </g>
        </g>
    </g>
</svg>