<?xml version="1.0" encoding="UTF-8"?>
<svg width="100px" height="101px" viewBox="0 0 100 101" version="1.1" xmlns="http://www.w3.org/2000/svg" xmlns:xlink="http://www.w3.org/1999/xlink">
    <!-- Generator: Sketch 52.1 (67048) - http://www.bohemiancoding.com/sketch -->
    <title>Group 12</title>
    <desc>Created with Sketch.</desc>
    <defs>
        <polygon id="path-1" points="0.624018104 0.595463431 4.62249615 0.595463431 4.62249615 5.91952776 0.624018104 5.91952776"></polygon>
    </defs>
    <g id="Brukerhistorier" stroke="none" stroke-width="1" fill="none" fill-rule="evenodd">
        <g id="FO-1854" transform="translate(-15.000000, -375.000000)">
            <g id="Group-12" transform="translate(15.000000, 375.000000)">
                <g id="Group-11">
                    <ellipse id="Oval" fill="#CCDEE6" cx="50" cy="50.045045" rx="50" ry="50.045045"></ellipse>
                    <g id="Jobbsøkertips" transform="translate(5.454545, 2.729730)" fill="#D8D8D8">
                        <g id="gjenstander/-ovenfra/-notatbok" transform="translate(20.000000, 26.387387) rotate(-15.000000) translate(-20.000000, -26.387387) translate(5.454545, 3.639640)">
                            <path d="M24.1684651,0.692307692 L13.2799767,0.692307692 L4.35067442,0.692307692 L0,0.692307692 L0,5.15907692 L0,36.6923077 L0,41.1597692 L4.35067442,41.1597692 L13.2799767,41.1597692 L24.1684651,41.1597692 C26.5714186,41.1597692 28.519814,39.1596923 28.519814,36.6923077 L28.519814,5.15907692 C28.519814,2.69238462 26.5714186,0.692307692 24.1684651,0.692307692" id="Fill-309" fill="#337C9B"></path>
                            <polygon id="Fill-311" fill="#38363A" points="18.8837209 42.1456154 20.5441395 42.1456154 20.5441395 0 18.8837209 0"></polygon>
                            <polygon id="Fill-313" fill="#CE2128" points="7.1704186 44.7715385 6.28288372 43.9643077 5.39534884 44.7715385 5.39534884 41.5384615 7.1704186 41.5384615"></polygon>
                        </g>
                    </g>
                    <g id="Group" transform="translate(7.272727, 5.459459)">
                        <g id="Group-7" transform="translate(48.181818, 41.855856)">
                            <path d="M0.702835131,15.5950427 L8.83935285,50.2740374 C9.12964561,51.5115805 10.3657011,52.2767081 11.5989831,51.9858485 L41.5204006,44.9385224 C42.7546071,44.6467364 43.5200924,43.411046 43.2297997,42.1725766 L33.8886595,2.35722245 C33.5974422,1.11967939 32.3623112,0.354551725 31.1281048,0.64448509 L6.74998459,6.38757413 L0.702835131,15.5950427 Z" id="Fill-4" fill="#EFEFEF"></path>
                            <path d="M6.74998459,6.3872036 L7.95553159,11.5235631 C8.24582435,12.7601798 7.48033898,13.9986492 6.24613251,14.2885826 L0.702835131,15.5946722 L6.74998459,6.3872036 Z" id="Fill-6" fill="#C0C0BE"></path>
                            <path d="M7.18338983,20.1975728 L18.0767643,17.6317088" id="Stroke-8" stroke="#8E9294" stroke-width="2.152" stroke-linecap="round"></path>
                            <path d="M8.32995378,25.0833668 L30.9422804,19.7580412" id="Stroke-10" stroke="#8E9294" stroke-width="2.152" stroke-linecap="round"></path>
                            <path d="M9.47661017,29.9699945 L32.0880123,24.6437426" id="Stroke-12" stroke="#8E9294" stroke-width="2.152" stroke-linecap="round"></path>
                            <path d="M10.6231741,34.855696 L33.2345763,29.529444" id="Stroke-14" stroke="#8E9294" stroke-width="2.264" stroke-linecap="round"></path>
                            <path d="M11.6884746,39.3967194 L34.2998767,34.0704675" id="Stroke-16" stroke="#8E9294" stroke-width="2.264" stroke-linecap="round"></path>
                            <path d="M12.7466564,44.3131741 L35.3589831,38.9869222" id="Stroke-18" stroke="#8E9294" stroke-width="2.264" stroke-linecap="round"></path>
                        </g>
                        <path d="M12.4529094,73.4114313 C7.24705419,70.0971132 5.70776297,63.1813224 9.01654572,57.9653007 C12.3253285,52.7483528 19.2267152,51.2069818 24.4325704,54.5222262 C29.63935,57.8365444 31.1777167,64.7523352 27.868934,69.9683568 C24.5610758,75.1853048 17.6587645,76.7266758 12.4529094,73.4114313 Z" id="Fill-20" fill="#CCDEE6"></path>
                        <path d="M1.16610356,91.8141738 C-0.00616146569,91.0675722 -0.351924178,89.510454 0.392297702,88.3358997 L8.35500957,75.780766 C9.10015595,74.607138 10.6542392,74.2597737 11.8255797,75.005449 C12.9987692,75.7520506 13.3445319,77.310095 12.5993855,78.4837231 L4.63759816,91.0388567 C3.89245179,92.2134111 2.33929308,92.5607753 1.16610356,91.8141738" id="Fill-22" fill="#C42B34"></path>
                        <path d="M10.0292249,77.2618748 C9.24802307,76.7644492 8.80333894,76.0632365 9.30071953,75.2795828 L10.9611201,72.6618457 C11.4575762,71.878192 12.4930154,71.6475421 13.2751417,72.145894 C14.0554191,72.6433196 14.2865439,73.6798546 13.7900878,74.4635083 L12.1296872,77.0821717 C11.6323066,77.8648991 10.8104268,77.7593004 10.0292249,77.2618748" id="Fill-24" fill="#2E3137"></path>
                        <path d="M7.64573237,77.3423423 L0.130478129,89.1907055 C-0.117287665,89.5825324 -0.00172526112,90.101263 0.388413414,90.350439 C0.779476588,90.599615 1.29719616,90.4838269 1.54496195,90.092 L8.73756596,78.7521781 C8.089492,78.323299 7.75297428,77.806421 7.64573237,77.3423423" id="Fill-26" fill="#D84B55"></path>
                        <path d="M18.0103126,74.1781666 C17.6700969,74.1364829 17.3317302,74.0771994 16.994288,74.0003162 C15.8710214,73.7446561 14.7699428,73.3083666 13.7428242,72.6534691 C8.92895671,69.5883269 7.5006054,63.1699618 10.5588489,58.3466933 C13.6189413,53.5234248 20.0247965,52.0922841 24.8395885,55.1583526 C29.6543804,58.2234948 31.0818072,64.6418599 28.0226393,69.4651284 C27.3153974,70.579473 26.4251046,71.503925 25.4210985,72.2431162 C25.1492957,72.443198 24.8691724,72.6284589 24.5807287,72.8007516 C23.8023003,73.2639039 22.9693265,73.6186786 22.1058442,73.8632231 C21.7841185,73.9549272 21.4586948,74.0299579 21.129573,74.0892414 C20.1061524,74.2745023 19.0549968,74.3078493 18.0103126,74.1781666 M29.4371231,70.3664229 C32.9927472,64.7604269 31.3323465,57.3018216 25.7382017,53.7411064 C20.1440569,50.1785386 12.6999891,51.8403292 9.14436503,57.4463252 C5.58966549,63.0504685 7.24914161,70.5090738 12.8442109,74.0716416 C18.4383558,77.6332831 25.8833481,75.9724188 29.4371231,70.3664229" id="Fill-28" fill="#2E3137"></path>
                        <path d="M77.6770724,5.9636389 C79.9041911,10.8471172 77.7575039,16.6161428 72.8826194,18.8466844 C68.0086595,21.0781524 62.2508783,18.9272729 60.0237596,14.0437947 C57.7975655,9.15939006 59.9433282,3.3912908 64.8191371,1.15889651 C69.6930971,-1.07164517 75.4508783,1.07923431 77.6770724,5.9636389" id="Fill-36" fill="#FFD399"></path>
                        <path d="M75.8641294,20.2354004 L71.9784592,22.0139054 C70.7470262,22.5770987 69.2918644,22.0342841 68.7288444,20.79952 L66.2068105,15.2676284 C65.6437904,14.0328643 66.185547,12.5748607 67.4179045,12.0116674 L71.3035747,10.2331624 C72.5350077,9.66904289 73.991094,10.2127837 74.5531895,11.4466216 L77.0761479,16.9794395 C77.6382435,18.2132773 77.0964869,19.6722072 75.8641294,20.2354004" id="Fill-38" fill="#FFD399"></path>
                        <path d="M78.2719877,22.3829452 L71.9992604,25.255416 C71.4269954,25.5166339 70.7502619,25.2637528 70.4886287,24.6903702 C70.2269954,24.1169876 70.4793837,23.4398588 71.0516487,23.1767883 L77.326225,20.3061701 C77.89849,20.0440259 78.5733744,20.296907 78.8350077,20.8702896 C79.0975655,21.4436722 78.8451772,22.120801 78.2719877,22.3829452" id="Fill-40" fill="#5A5C5D"></path>
                        <path d="M79.4312173,24.9248179 L73.1575655,27.7972887 C72.5853005,28.0594329 71.9094915,27.8056254 71.6478582,27.2322428 C71.386225,26.6588602 71.6376888,25.9817315 72.2108783,25.7195873 L78.48453,22.8480428 C79.0567951,22.5868249 79.732604,22.8387797 79.9942373,23.4121623 C80.2567951,23.9855449 80.0034823,24.6636 79.4312173,24.9248179" id="Fill-42" fill="#5A5C5D"></path>
                        <path d="M77.9018182,26.187649 L75.134792,27.4539075 C74.7178428,27.6447263 74.7705393,28.2625715 75.2170724,28.3690966 C75.8392604,28.5182316 76.5113713,28.4691375 77.1391063,28.1810567 C77.7668413,27.8948286 78.2429584,27.4168554 78.5387982,26.8490306 C78.7505085,26.4405302 78.3196918,25.9968303 77.9018182,26.187649" id="Fill-44" fill="#5A5C5D"></path>
                        <g id="Group-9" transform="translate(80.050414, 59.022770) rotate(-69.000000) translate(-80.050414, -59.022770) translate(62.550414, 53.022770)">
                            <g id="Group-48" transform="translate(29.922958, 5.395380)">
                                <mask id="mask-2" fill="white">
                                    <use xlink:href="#path-1"></use>
                                </mask>
                                <g id="Clip-47"></g>
                                <path d="M0.665177196,3.71309232 L1.02665639,2.03462824 C1.23744222,1.04904005 2.20539291,0.424710697 3.18813559,0.63683447 C4.16902928,0.848031937 4.79306626,1.81509403 4.58135593,2.80068221 L4.22080123,4.4800726 C4.00909091,5.46473448 3.04298921,6.08906383 2.06302003,5.87879267 C1.07935285,5.66574259 0.453466872,4.6977542 0.665177196,3.71309232" id="Fill-46" fill="#C42B34" mask="url(#mask-2)"></path>
                            </g>
                            <g id="Group-8">
                                <polygon id="Fill-49" fill="#E1CFB4" points="7.46206471 0.503102305 0.721540832 1.79251842 6.33694915 5.7441342 7.64511556 3.17641762"></polygon>
                                <polygon id="Fill-51" fill="#FECB86" points="31.7293374 7.56163662 32.1046841 5.81462599 7.98727273 0.616204107 7.61192604 2.36228843"></polygon>
                                <polygon id="Fill-53" fill="#FAA736" points="31.3537134 9.31022197 31.7290601 7.56321134 7.61164869 2.36478946 7.236302 4.11180009"></polygon>
                                <polygon id="Fill-55" fill="#FECB86" points="7.23639445 4.1115222 6.86197227 5.85760653 30.9793837 11.0569547 31.3538059 9.30994408"></polygon>
                                <path d="M6.96644068,0.993395374 C6.89525424,1.32223354 7.26505393,1.63254561 7.17075501,2.07254033 C7.15503852,2.14386579 7.12915254,2.20222299 7.09402157,2.25039083 L7.61174114,2.3624737 L7.98708783,0.616389368 L7.50542373,0.511716939 C7.50542373,0.511716939 7.03670262,0.664557211 6.96644068,0.993395374" id="Fill-57" fill="#FECB86"></path>
                                <path d="M7.09374422,2.25076135 C6.92548536,2.51568449 6.56123267,2.56385233 6.46046225,3.02885728 C6.36154083,3.49478854 6.67402157,3.69116513 6.71839753,3.99962459 L7.2361171,4.11170746 L7.61238829,2.36191791 L7.09374422,2.25076135 Z" id="Fill-59" fill="#FAA736"></path>
                                <path d="M6.71821263,3.9993467 C6.73023112,4.06048281 6.73115562,4.12254522 6.71543914,4.19387068 C6.62114022,4.6329391 6.1570416,4.76354806 6.08585516,5.09331253 C6.01466872,5.4240033 6.37984592,5.75469408 6.37984592,5.75469408 L6.86151002,5.85751389 L7.2368567,4.11142957 L6.71821263,3.9993467 Z" id="Fill-61" fill="#FECB86"></path>
                                <polygon id="Fill-63" fill="#535756" points="0.721540832 1.7921479 2.70828968 3.19179428 3.10674884 1.33455339"></polygon>
                                <polygon id="Fill-65" fill="#535756" points="30.9790139 11.0569547 32.1050539 5.81499651 32.8150693 5.96783678 31.6899538 11.209795"></polygon>
                            </g>
                        </g>
                    </g>
                </g>
            </g>
        </g>
    </g>
</svg>