<svg width="100" height="101" xmlns="http://www.w3.org/2000/svg" xmlns:xlink="http://www.w3.org/1999/xlink"><defs><path id="a" d="M.353.408h6.978V3H.353z"/></defs><g fill="none" fill-rule="evenodd"><ellipse cx="50" cy="50.045" rx="50" ry="50.045" fill="#CCDEE6"/><path d="M57.805 56.687v1.133a5.201 5.201 0 01-5.2 5.202H47.08a5.203 5.203 0 01-5.203-5.202v-1.133C36.593 53.845 33 48.264 33 41.843 33 32.54 40.54 25 49.843 25c9.303 0 16.843 7.54 16.843 16.843 0 6.421-3.593 12.003-8.88 14.844z" fill="#FFF"/><path d="M56.491 68.143H43.148a1.293 1.293 0 01-1.292-1.292V65.48c0-.713.58-1.292 1.292-1.292h13.343c.714 0 1.292.58 1.292 1.292v1.372c0 .713-.578 1.292-1.292 1.292M56.491 72.985H43.148a1.293 1.293 0 01-1.292-1.292V70.32c0-.713.58-1.292 1.292-1.292h13.343c.714 0 1.292.579 1.292 1.292v1.372c0 .713-.578 1.292-1.292 1.292" fill="#585B5C"/><g transform="translate(46 73.462)"><mask id="b" fill="#fff"><use xlink:href="#a"/></mask><path d="M6.483.408h-5.28C.405.408.044 1.42.672 1.91A5.13 5.13 0 003.842 3 5.125 5.125 0 007.01 1.91C7.64 1.42 7.28.407 6.483.407" fill="#585B5C" mask="url(#b)"/></g></g></svg>