<?xml version="1.0" encoding="UTF-8"?>
<svg width="165px" height="207px" viewBox="0 0 165 207" version="1.1" xmlns="http://www.w3.org/2000/svg" xmlns:xlink="http://www.w3.org/1999/xlink">
    <!-- Generator: Sketch 52.1 (67048) - http://www.bohemiancoding.com/sketch -->
    <title>Mia Copy</title>
    <desc>Created with Sketch.</desc>
    <g id="Brukerhistorier" stroke="none" stroke-width="1" fill="none" fill-rule="evenodd">
        <g id="FO-1305-Copy-7" transform="translate(-822.000000, -335.000000)">
            <g id="Mia-Copy" transform="translate(822.000000, 335.000000)">
                <g id="Group" fill="#CCDEE6" fill-rule="nonzero">
                    <path d="M42.3214886,124.446356 C38.9151143,123.746571 33.9461831,122.060726 31.1023294,124.128272 C30.5085578,124.541781 31.4773431,123.364871 31.2898363,124.064655 C29.2272611,132.239413 22.3207592,128.963148 19.8519192,136.533547 C15.6330153,136.374505 6.22642231,142.927034 5.16388356,147.093934 C4.10134481,151.260834 6.22642231,156.032094 10.0078102,157.972406 C8.28899752,158.831232 6.382678,159.371975 4.47635849,159.562826 C2.85129923,168.341943 -2.21138539,173.431286 1.10123541,181.701469 C1.66375592,183.132847 8.3514998,184.087099 5.16388356,187.745065 C4.16384709,188.890167 2.82004809,189.908036 1.41374681,189.335484 C-0.148810175,190.067078 1.38249567,196.237906 2.47628555,197.573859 C16.4142938,214.782201 25.7896357,203.967347 35.7900004,199.832255 C45.7903651,195.697164 43.321525,185.423052 45.7903651,183.609973 L46.7278992,189.653568 C46.9154061,189.908036 51.4155702,189.335484 52.3531044,192.834408 C52.728118,194.265786 56.290748,188.063149 56.7282639,186.790813 C58.2908209,182.369446 56.7907662,183.323698 58.9158437,179.156798 C63.2910032,170.568531 60.1971404,167.133224 63.916026,159.435592 C67.259898,152.501362 58.6970857,139.014602 61.4159349,130.489951 C62.1034599,128.358789 61.9159531,122.410619 63.6660169,121.042858 C64.7910579,120.184031 67.7599162,116.017131 68.9162084,115.221921 C73.9163907,111.659381 79.5415958,117.130425 75.1664363,106.633654 C71.6350575,98.1726209 78.4165548,90.474989 80.7916414,85.9581968 C83.823002,80.200877 84.0417599,76.2248275 86.1043351,70.0539987 C87.198125,66.7777338 87.6043899,63.3742354 88.9169377,60.1933958 C90.2294856,57.0125562 92.9170836,53.9589502 96.2922067,53.6408662 C94.8234031,51.2234281 97.6360057,48.328864 100.323604,47.5654625 C103.011202,46.802061 106.230069,46.6748274 107.886379,44.4164313 C108.792663,43.1759039 109.01142,41.5536757 109.573941,40.0904894 C111.417758,35.2874216 117.636735,32.8699835 122.16815,35.1919964 C124.793246,36.5597574 124.230725,40.7584657 126.699566,42.380694 C130.94972,45.1798328 133.856076,44.5436649 137.637464,41.1083581 L143.887692,42.380694 C145.293994,38.4682612 146.356532,34.0468941 145.450249,29.9754194 C144.700222,26.6355378 144.168953,22.3732127 147.544076,22.0551288 C152.60676,21.5780028 155.763125,29.9754194 159.825773,29.9754194 C162.013353,24.2499081 165.450979,21.7052364 164.95096,20.6555593 C163.950924,18.619822 160.294541,21.83247 156.70066,19.7967327 C155.856879,19.3196067 155.294358,14.8346228 156.231892,14.5165389 C160.294541,13.1487778 165.20097,10.8903817 161.044568,7.39145813 C158.606979,5.35572077 156.16939,3.19274983 153.013025,3.31998342 C151.325464,3.38360021 149.419144,4.08338493 148.919126,5.70561313 C147.262815,5.9600803 146.57529,2.84285747 148.20035,2.36573153 C147.575327,0.584461344 145.418998,-0.465215731 143.668934,0.202760589 C141.91887,0.87073691 140.981336,3.12913304 141.700113,4.87859483 C139.543784,3.79710936 137.262451,2.71562389 134.856113,2.71562389 C132.449775,2.71562389 129.855931,4.21061851 129.387164,6.62805662 C128.324625,6.18273908 127.168333,5.73742153 126.074543,6.02369709 C124.949502,6.30997266 124.07447,7.6777337 124.668241,8.66379398 C121.668132,6.75529021 117.011712,9.07730313 116.699201,12.6716519 C117.667986,14.0712213 119.98057,13.5304786 121.105612,14.0712213 C121.980643,15.6934495 119.261794,16.456851 117.605484,17.1884442 C113.011566,19.1923731 108.073886,21.2599189 103.136206,20.4329006 C102.636188,20.3374754 102.073667,20.2420502 101.6049,20.4010922 C100.448608,20.7509845 100.198599,22.2459792 99.7923343,23.4228898 C98.6672933,26.6673462 95.3546725,28.416808 92.5420699,30.3253118 C89.7294673,32.2338156 90.8232572,33.1880675 87.6981433,36.686991 C85.1355498,34.9375292 81.4479153,37.4822009 78.916573,39.2634711 C76.3539796,41.0447413 80.0103629,41.0447413 78.3228014,43.6848382 C81.0103994,44.3528145 78.4165548,47.4064206 81.1979062,47.3746122 C75.322692,49.1558823 74.7601715,52.2412968 70.5100165,56.7262806 C74.6664181,57.076173 78.6353128,48.4560976 83.9480065,50.6826854 C87.8231478,52.3049136 87.6981433,48.7741816 85.5105635,51.6369373 C79.135331,52.9092731 75.8227102,60.3206294 76.2914773,66.9049674 C71.7913132,72.0261192 68.3536879,78.0697145 66.1973592,84.5904357 C65.3223273,87.262341 64.6035511,90.1250967 62.8222361,92.2880676 C61.7596974,93.6240202 60.322145,94.6418889 59.4471131,96.1050751 C58.5720812,97.5682614 58.54083,99.7948491 59.9783824,100.717293 C57.8220538,100.812718 55.5719717,100.939951 53.6656522,101.989628 C51.7593327,103.039306 50.3217803,105.32951 50.9155519,107.428864 C51.1655611,108.287691 50.0092689,106.760888 49.8530132,107.651523 C49.6967575,108.573966 50.4467849,109.082901 49.5405018,109.241943 C46.1028764,109.878111 44.5403195,111.150447 41.1026941,120.692965 C43.0715159,121.647217 43.8840455,122.124343 45.7903651,121.011049 C47.6966846,119.897756 49.5405018,115.603622 50.478036,118.466378 C45.2903468,120.438498 58.9470948,125.336991 42.9777625,123.237637 L42.3839908,124.509973 C42.3527397,124.446356 42.3527397,124.446356 42.3214886,124.446356 Z" id="Shape"></path>
                </g>
                <g id="Group-8" transform="translate(100.000000, 117.500000) scale(-1, 1) translate(-100.000000, -117.500000) translate(60.000000, 72.000000)">
                    <path d="M1.70906666,89.27619 C-0.469931688,86.8648483 -0.579033136,82.8232533 1.46055781,80.2506778 L23.2505413,52.740601 C25.2901323,50.1680255 28.7056137,50.0354554 30.8846121,52.4467971 C33.0605798,54.8581388 33.1727119,58.8961509 31.1331209,61.4687264 L9.34313739,88.9788032 C7.30354644,91.5513787 3.88806502,91.6875317 1.70906666,89.27619" id="Fill-33" fill="#C52D35"></path>
                    <path d="M69.0258997,11.086394 C59.7862269,1.40347662 45.2282611,1.93966423 36.5774217,12.277922 C27.9234501,22.6126754 28.3995282,38.9015643 37.639201,48.5844817 C46.8820059,58.2673991 61.4399718,57.734716 70.0939433,47.3964582 C78.7447827,37.0582004 78.2655726,20.7693114 69.0258997,11.086394 M35.099074,51.6228782 C24.3591289,40.3699474 23.8047485,21.4421743 33.8587654,9.42876828 C43.9159143,-2.58113326 60.8323458,-3.20142873 71.5691588,8.04799757 C82.3059719,19.3009284 82.8634843,38.2287014 72.8063354,50.2421075 C62.7523185,62.2555135 45.835887,62.8723045 35.099074,51.6228782" id="Fill-34" fill="#303339"></path>
                    <path d="M28.3949062,58.0059142 C26.714105,56.285421 25.9526564,54.18857 27.5281882,52.3451845 L32.7881487,46.2005661 C34.3636805,44.3571806 36.9989242,44.2650113 38.6832345,45.9855044 C40.3605267,47.7059976 40.4482512,50.5939682 38.8727194,52.4335134 L33.6127589,58.5819722 C32.0372271,60.4253577 30.0757075,59.7264074 28.3949062,58.0059142" id="Fill-35" fill="#303339"></path>
                    <path d="M24.9681318,56.6885246 L4.91951183,81.5929661 C4.25486773,82.4178441 4.29326939,83.7067159 4.99926912,84.480039 C5.70822282,85.2533622 6.81596298,85.2086813 7.48060708,84.3872403 L26.6666667,60.5482662 C25.502801,59.2318984 25.0094874,57.8467908 24.9681318,56.6885246" id="Fill-36" fill="#DA4D57"></path>
                </g>
            </g>
        </g>
    </g>
</svg>